<svg width="60" height="33.83" viewBox="0 0 50 33.83" fill="none" xmlns="http://www.w3.org/2000/svg">
<path d="M33.2555 23.9009C35.5831 23.9009 37.3521 22.907 38.4694 21.5093C39.5867 20.1118 39.835 18.6105 39.835 17.5804C39.835 17.2026 39.7729 16.7366 39.6798 16.1103C39.4625 14.8938 38.3763 13.1235 36.4831 12.1297L36.9177 11.3222C37.4452 10.4161 37.6935 9.47936 37.6935 8.54242C37.6935 8.41816 37.6625 8.0454 37.6315 7.45015C37.6004 6.85491 37.29 6.07312 36.7313 5.17245C35.6142 3.3711 33.5969 2.09766 31.114 2.09766H1.16498V5.51414H31.114C32.883 5.51414 34.1555 6.88598 34.1555 8.41817C34.1555 10.0435 32.7278 11.3222 31.114 11.3222H1.16498V23.9009H33.2555ZM33.2555 14.7387C34.9313 14.7387 36.2969 15.9861 36.2969 17.6115C36.2969 19.2059 34.9313 20.5465 33.2555 20.5465H4.70289V14.7387H33.2555Z" fill="#CE1C1B"/>
</svg>
